<svg xmlns="http://www.w3.org/2000/svg" viewBox="0 56 400 196"><ellipse cx="200" cy="236" rx="170" ry="14" fill="#02323C" opacity=".12"/><path d="M58 118 Q66 232 200 236 Q334 232 342 118 Z" fill="#FFFFFF" stroke="#02323C" stroke-width="6" stroke-linejoin="round" stroke-linecap="round"/><path d="M92 190 Q200 214 308 190" stroke="#CED7D9" stroke-width="6" fill="none" stroke-linecap="round"/><ellipse cx="200" cy="118" rx="142" ry="42" fill="#FFFFFF" stroke="#02323C" stroke-width="6" stroke-linejoin="round" stroke-linecap="round"/><ellipse cx="200" cy="120" rx="124" ry="31" fill="#9C3A1A"/><ellipse cx="259" cy="107" rx="9" ry="6" fill="#5E1F10" transform="rotate(-0 259 107)"/><ellipse cx="189" cy="128" rx="9" ry="6" fill="#5E1F10" transform="rotate(23 189 128)"/><ellipse cx="275" cy="117" rx="9" ry="6" fill="#5E1F10" transform="rotate(21 275 117)"/><ellipse cx="250" cy="106" rx="9" ry="6" fill="#5E1F10" transform="rotate(36 250 106)"/><ellipse cx="137" cy="116" rx="9" ry="6" fill="#5E1F10" transform="rotate(-38 137 116)"/><ellipse cx="138" cy="117" rx="9" ry="6" fill="#5E1F10" transform="rotate(-0 138 117)"/><ellipse cx="140" cy="106" rx="9" ry="6" fill="#5E1F10" transform="rotate(-22 140 106)"/><ellipse cx="191" cy="109" rx="9" ry="6" fill="#5E1F10" transform="rotate(-38 191 109)"/><ellipse cx="276" cy="123" rx="9" ry="6" fill="#5E1F10" transform="rotate(11 276 123)"/><ellipse cx="163" cy="132" rx="9" ry="6" fill="#5E1F10" transform="rotate(17 163 132)"/><ellipse cx="298" cy="116" rx="9" ry="6" fill="#5E1F10" transform="rotate(26 298 116)"/><ellipse cx="238" cy="110" rx="9" ry="6" fill="#5E1F10" transform="rotate(7 238 110)"/><ellipse cx="201" cy="125" rx="9" ry="6" fill="#5E1F10" transform="rotate(-37 201 125)"/><ellipse cx="142" cy="135" rx="9" ry="6" fill="#5E1F10" transform="rotate(-7 142 135)"/><ellipse cx="127" cy="123" rx="9" ry="6" fill="#5E1F10" transform="rotate(16 127 123)"/><ellipse cx="239" cy="113" rx="9" ry="6" fill="#5E1F10" transform="rotate(-5 239 113)"/><rect x="270" y="129" width="11" height="9" rx="3" fill="#6B3A26"/><rect x="235" y="109" width="11" height="9" rx="3" fill="#6B3A26"/><rect x="222" y="123" width="11" height="9" rx="3" fill="#6B3A26"/><rect x="217" y="102" width="11" height="9" rx="3" fill="#6B3A26"/><rect x="186" y="113" width="11" height="9" rx="3" fill="#6B3A26"/><rect x="189" y="107" width="11" height="9" rx="3" fill="#6B3A26"/><rect x="193" y="109" width="11" height="9" rx="3" fill="#6B3A26"/><rect x="175" y="137" width="11" height="9" rx="3" fill="#6B3A26"/><rect x="205" y="121" width="11" height="9" rx="3" fill="#6B3A26"/><rect x="164" y="101" width="11" height="9" rx="3" fill="#6B3A26"/><path d="M139 113 l13 1" stroke="#FFD447" stroke-width="5" stroke-linecap="round"/><path d="M141 105 l18 -0" stroke="#FFD447" stroke-width="5" stroke-linecap="round"/><path d="M210 111 l15 -3" stroke="#FFD447" stroke-width="5" stroke-linecap="round"/><path d="M186 122 l14 2" stroke="#FFD447" stroke-width="5" stroke-linecap="round"/><path d="M201 115 l12 -4" stroke="#FFD447" stroke-width="5" stroke-linecap="round"/><path d="M214 111 l16 3" stroke="#FFD447" stroke-width="5" stroke-linecap="round"/><path d="M157 120 l14 3" stroke="#FFD447" stroke-width="5" stroke-linecap="round"/><path d="M185 106 l14 -1" stroke="#FFD447" stroke-width="5" stroke-linecap="round"/><path d="M152 114 l15 3" stroke="#FFD447" stroke-width="5" stroke-linecap="round"/><path d="M191 103 l17 4" stroke="#FFD447" stroke-width="5" stroke-linecap="round"/><path d="M219 114 l16 -2" stroke="#FFD447" stroke-width="5" stroke-linecap="round"/><path d="M210 114 l12 -3" stroke="#FFD447" stroke-width="5" stroke-linecap="round"/><path d="M159 102 l12 2" stroke="#FFD447" stroke-width="5" stroke-linecap="round"/><path d="M196 107 l17 4" stroke="#FFD447" stroke-width="5" stroke-linecap="round"/><path d="M134 109 l15 -3" stroke="#FFD447" stroke-width="5" stroke-linecap="round"/><path d="M218 109 l14 0" stroke="#FFD447" stroke-width="5" stroke-linecap="round"/><path d="M187 115 l14 1" stroke="#FFD447" stroke-width="5" stroke-linecap="round"/><path d="M223 112 l13 2" stroke="#FFD447" stroke-width="5" stroke-linecap="round"/><path d="M139 106 l18 0" stroke="#FFD447" stroke-width="5" stroke-linecap="round"/><path d="M160 114 l10 1" stroke="#FFD447" stroke-width="5" stroke-linecap="round"/><path d="M185 111 l15 -1" stroke="#FFD447" stroke-width="5" stroke-linecap="round"/><path d="M195 119 l10 -4" stroke="#FFD447" stroke-width="5" stroke-linecap="round"/><path d="M214 104 Q238 90 262 104 Q276 116 256 124 Q236 130 218 122 Q202 114 214 104 Z" fill="#FFFCF2" stroke="#02323C" stroke-width="4" stroke-linejoin="round" stroke-linecap="round"/><circle cx="212" cy="102" r="4.5" fill="#03A083" stroke="#02323C" stroke-width="1.5"/><circle cx="155" cy="112" r="4.5" fill="#03A083" stroke="#02323C" stroke-width="1.5"/><circle cx="276" cy="105" r="4.5" fill="#03A083" stroke="#02323C" stroke-width="1.5"/><circle cx="236" cy="107" r="4.5" fill="#03A083" stroke="#02323C" stroke-width="1.5"/><circle cx="282" cy="104" r="4.5" fill="#03A083" stroke="#02323C" stroke-width="1.5"/><circle cx="197" cy="121" r="4.5" fill="#03A083" stroke="#02323C" stroke-width="1.5"/><circle cx="270" cy="130" r="4.5" fill="#03A083" stroke="#02323C" stroke-width="1.5"/><circle cx="248" cy="123" r="4.5" fill="#03A083" stroke="#02323C" stroke-width="1.5"/><circle cx="231" cy="103" r="4.5" fill="#03A083" stroke="#02323C" stroke-width="1.5"/><circle cx="225" cy="100" r="4.5" fill="#03A083" stroke="#02323C" stroke-width="1.5"/><circle cx="238" cy="108" r="4.5" fill="#03A083" stroke="#02323C" stroke-width="1.5"/><circle cx="300" cy="119" r="4.5" fill="#03A083" stroke="#02323C" stroke-width="1.5"/><circle cx="231" cy="113" r="4.5" fill="#03A083" stroke="#02323C" stroke-width="1.5"/><circle cx="247" cy="113" r="4.5" fill="#03A083" stroke="#02323C" stroke-width="1.5"/></svg>