<svg xmlns="http://www.w3.org/2000/svg" viewBox="0 56 400 196"><ellipse cx="200" cy="232" rx="178" ry="14" fill="#02323C" opacity=".12"/><ellipse cx="200" cy="170" rx="184" ry="62" fill="#FFFFFF" stroke="#02323C" stroke-width="6" stroke-linejoin="round" stroke-linecap="round"/><ellipse cx="200" cy="166" rx="142" ry="42" fill="none" stroke="#E1E9EB" stroke-width="6"/><path d="M86 164 Q92 118 150 116 Q200 114 206 150 Q210 186 150 190 Q92 192 86 164 Z" fill="#FFFFFF" stroke="#02323C" stroke-width="4" stroke-linejoin="round" stroke-linecap="round"/><ellipse cx="159" cy="168" rx="5" ry="2.6" fill="#E1E9EB" transform="rotate(35 159 168)"/><ellipse cx="142" cy="179" rx="5" ry="2.6" fill="#E1E9EB" transform="rotate(18 142 179)"/><ellipse cx="143" cy="140" rx="5" ry="2.6" fill="#E1E9EB" transform="rotate(5 143 140)"/><ellipse cx="117" cy="142" rx="5" ry="2.6" fill="#E1E9EB" transform="rotate(50 117 142)"/><ellipse cx="174" cy="135" rx="5" ry="2.6" fill="#E1E9EB" transform="rotate(36 174 135)"/><ellipse cx="108" cy="161" rx="5" ry="2.6" fill="#E1E9EB" transform="rotate(-45 108 161)"/><ellipse cx="116" cy="138" rx="5" ry="2.6" fill="#E1E9EB" transform="rotate(58 116 138)"/><ellipse cx="185" cy="142" rx="5" ry="2.6" fill="#E1E9EB" transform="rotate(55 185 142)"/><ellipse cx="150" cy="164" rx="5" ry="2.6" fill="#E1E9EB" transform="rotate(-35 150 164)"/><ellipse cx="125" cy="146" rx="5" ry="2.6" fill="#E1E9EB" transform="rotate(-40 125 146)"/><ellipse cx="125" cy="160" rx="5" ry="2.6" fill="#E1E9EB" transform="rotate(-60 125 160)"/><ellipse cx="165" cy="145" rx="5" ry="2.6" fill="#E1E9EB" transform="rotate(-23 165 145)"/><ellipse cx="179" cy="153" rx="5" ry="2.6" fill="#E1E9EB" transform="rotate(-22 179 153)"/><ellipse cx="144" cy="165" rx="5" ry="2.6" fill="#E1E9EB" transform="rotate(-53 144 165)"/><ellipse cx="172" cy="173" rx="5" ry="2.6" fill="#E1E9EB" transform="rotate(-58 172 173)"/><ellipse cx="176" cy="147" rx="5" ry="2.6" fill="#E1E9EB" transform="rotate(9 176 147)"/><ellipse cx="114" cy="168" rx="5" ry="2.6" fill="#E1E9EB" transform="rotate(52 114 168)"/><ellipse cx="131" cy="155" rx="5" ry="2.6" fill="#E1E9EB" transform="rotate(33 131 155)"/><ellipse cx="103" cy="145" rx="5" ry="2.6" fill="#E1E9EB" transform="rotate(13 103 145)"/><ellipse cx="190" cy="157" rx="5" ry="2.6" fill="#E1E9EB" transform="rotate(-23 190 157)"/><ellipse cx="127" cy="136" rx="5" ry="2.6" fill="#E1E9EB" transform="rotate(-51 127 136)"/><ellipse cx="109" cy="165" rx="5" ry="2.6" fill="#E1E9EB" transform="rotate(60 109 165)"/><ellipse cx="136" cy="139" rx="5" ry="2.6" fill="#E1E9EB" transform="rotate(11 136 139)"/><ellipse cx="180" cy="152" rx="5" ry="2.6" fill="#E1E9EB" transform="rotate(-9 180 152)"/><ellipse cx="160" cy="170" rx="5" ry="2.6" fill="#E1E9EB" transform="rotate(-47 160 170)"/><ellipse cx="139" cy="134" rx="5" ry="2.6" fill="#E1E9EB" transform="rotate(41 139 134)"/><path d="M228 150 Q230 132 250 132 Q274 134 272 152 Q268 166 246 164 Q228 162 228 150 Z" fill="#E0701C" stroke="#02323C" stroke-width="4" stroke-linejoin="round"/><path d="M240 144 q10 -6 18 0" stroke="#FFB45A" stroke-width="4" fill="none" stroke-linecap="round"/><path d="M278 168 Q280 150 300 150 Q324 152 322 170 Q318 184 296 182 Q278 180 278 168 Z" fill="#E0701C" stroke="#02323C" stroke-width="4" stroke-linejoin="round"/><path d="M290 162 q10 -6 18 0" stroke="#FFB45A" stroke-width="4" fill="none" stroke-linecap="round"/><path d="M210 186 Q212 168 232 168 Q256 170 254 188 Q250 202 228 200 Q210 198 210 186 Z" fill="#E0701C" stroke="#02323C" stroke-width="4" stroke-linejoin="round"/><path d="M222 180 q10 -6 18 0" stroke="#FFB45A" stroke-width="4" fill="none" stroke-linecap="round"/><path d="M260 132 Q262 114 282 114 Q306 116 304 134 Q300 148 278 146 Q260 144 260 132 Z" fill="#E0701C" stroke="#02323C" stroke-width="4" stroke-linejoin="round"/><path d="M272 126 q10 -6 18 0" stroke="#FFB45A" stroke-width="4" fill="none" stroke-linecap="round"/><rect x="303" y="182" width="15" height="13" rx="3" fill="#FFC21A" stroke="#02323C" stroke-width="3" transform="rotate(-1 303 182)"/><rect x="285" y="158" width="15" height="13" rx="3" fill="#FFC21A" stroke="#02323C" stroke-width="3" transform="rotate(16 285 158)"/><rect x="244" y="178" width="15" height="13" rx="3" fill="#FFC21A" stroke="#02323C" stroke-width="3" transform="rotate(-14 244 178)"/><rect x="304" y="176" width="15" height="13" rx="3" fill="#FFC21A" stroke="#02323C" stroke-width="3" transform="rotate(-5 304 176)"/><rect x="267" y="172" width="15" height="13" rx="3" fill="#FFC21A" stroke="#02323C" stroke-width="3" transform="rotate(-18 267 172)"/><rect x="270" y="181" width="15" height="13" rx="3" fill="#FFC21A" stroke="#02323C" stroke-width="3" transform="rotate(-14 270 181)"/><rect x="304" y="173" width="15" height="13" rx="3" fill="#FFC21A" stroke="#02323C" stroke-width="3" transform="rotate(21 304 173)"/><rect x="239" y="132" width="15" height="13" rx="3" fill="#FFC21A" stroke="#02323C" stroke-width="3" transform="rotate(18 239 132)"/><rect x="305" y="156" width="15" height="13" rx="3" fill="#FFC21A" stroke="#02323C" stroke-width="3" transform="rotate(-24 305 156)"/><circle cx="214" cy="140" r="9" fill="#FF540A" stroke="#02323C" stroke-width="3"/><circle cx="214" cy="140" r="3" fill="#FFD1B9"/><circle cx="326" cy="146" r="9" fill="#FF540A" stroke="#02323C" stroke-width="3"/><circle cx="326" cy="146" r="3" fill="#FFD1B9"/><path d="M231 135 l5 -6 l5 6 l-5 4 z" fill="#03A083" stroke="#02323C" stroke-width="2"/><path d="M261 148 l5 -6 l5 6 l-5 4 z" fill="#03A083" stroke="#02323C" stroke-width="2"/><path d="M194 156 l5 -6 l5 6 l-5 4 z" fill="#03A083" stroke="#02323C" stroke-width="2"/><path d="M245 176 l5 -6 l5 6 l-5 4 z" fill="#03A083" stroke="#02323C" stroke-width="2"/><path d="M267 150 l5 -6 l5 6 l-5 4 z" fill="#03A083" stroke="#02323C" stroke-width="2"/><path d="M306 143 l5 -6 l5 6 l-5 4 z" fill="#03A083" stroke="#02323C" stroke-width="2"/><path d="M229 175 l5 -6 l5 6 l-5 4 z" fill="#03A083" stroke="#02323C" stroke-width="2"/><path d="M211 161 l5 -6 l5 6 l-5 4 z" fill="#03A083" stroke="#02323C" stroke-width="2"/></svg>