<svg xmlns="http://www.w3.org/2000/svg" viewBox="0 56 400 196"><ellipse cx="200" cy="236" rx="176" ry="14" fill="#02323C" opacity=".12"/><rect x="318" y="140" width="80" height="22" rx="10" fill="#2D3C40" stroke="#02323C" stroke-width="6" stroke-linejoin="round" stroke-linecap="round"/><ellipse cx="190" cy="160" rx="160" ry="68" fill="#2D3C40" stroke="#02323C" stroke-width="6" stroke-linejoin="round" stroke-linecap="round"/><ellipse cx="190" cy="152" rx="136" ry="52" fill="#132326"/><path d="M24 196 Q30 150 80 146 Q120 146 118 186 Z" fill="#F3D9A4" stroke="#02323C" stroke-width="5" stroke-linejoin="round"/><circle cx="60" cy="176" r="4" fill="#C9A060"/><circle cx="86" cy="164" r="3" fill="#C9A060"/><rect x="94" y="163" width="40" height="10" rx="5" fill="#E23B2E" stroke="#02323C" stroke-width="3" transform="rotate(-41 114 168)"/><rect x="112" y="158" width="40" height="10" rx="5" fill="#E23B2E" stroke="#02323C" stroke-width="3" transform="rotate(-4 132 163)"/><rect x="166" y="147" width="40" height="10" rx="5" fill="#E23B2E" stroke="#02323C" stroke-width="3" transform="rotate(-31 186 152)"/><rect x="125" y="140" width="40" height="10" rx="5" fill="#E23B2E" stroke="#02323C" stroke-width="3" transform="rotate(40 145 145)"/><rect x="149" y="118" width="40" height="10" rx="5" fill="#E23B2E" stroke="#02323C" stroke-width="3" transform="rotate(-24 169 123)"/><rect x="202" y="138" width="40" height="10" rx="5" fill="#E23B2E" stroke="#02323C" stroke-width="3" transform="rotate(16 222 143)"/><rect x="168" y="137" width="40" height="10" rx="5" fill="#03A083" stroke="#02323C" stroke-width="3" transform="rotate(-36 188 142)"/><rect x="177" y="177" width="40" height="10" rx="5" fill="#03A083" stroke="#02323C" stroke-width="3" transform="rotate(-42 197 182)"/><rect x="188" y="156" width="40" height="10" rx="5" fill="#03A083" stroke="#02323C" stroke-width="3" transform="rotate(-46 208 161)"/><rect x="149" y="162" width="40" height="10" rx="5" fill="#03A083" stroke="#02323C" stroke-width="3" transform="rotate(-5 169 167)"/><rect x="226" y="121" width="40" height="10" rx="5" fill="#03A083" stroke="#02323C" stroke-width="3" transform="rotate(-26 246 126)"/><rect x="90" y="147" width="40" height="10" rx="5" fill="#03A083" stroke="#02323C" stroke-width="3" transform="rotate(42 110 152)"/><rect x="192" y="142" width="40" height="10" rx="5" fill="#FFD447" stroke="#02323C" stroke-width="3" transform="rotate(8 212 147)"/><rect x="111" y="171" width="40" height="10" rx="5" fill="#FFD447" stroke="#02323C" stroke-width="3" transform="rotate(32 131 176)"/><rect x="210" y="121" width="40" height="10" rx="5" fill="#FFD447" stroke="#02323C" stroke-width="3" transform="rotate(2 230 126)"/><rect x="138" y="128" width="40" height="10" rx="5" fill="#FFD447" stroke="#02323C" stroke-width="3" transform="rotate(45 158 133)"/><rect x="255" y="155" width="40" height="10" rx="5" fill="#FFD447" stroke="#02323C" stroke-width="3" transform="rotate(-12 275 160)"/><rect x="166" y="152" width="40" height="10" rx="5" fill="#E6D0FD" stroke="#02323C" stroke-width="3" transform="rotate(42 186 157)"/><rect x="168" y="148" width="40" height="10" rx="5" fill="#E6D0FD" stroke="#02323C" stroke-width="3" transform="rotate(9 188 153)"/><rect x="107" y="148" width="40" height="10" rx="5" fill="#E6D0FD" stroke="#02323C" stroke-width="3" transform="rotate(13 127 153)"/><rect x="244" y="162" width="40" height="10" rx="5" fill="#E6D0FD" stroke="#02323C" stroke-width="3" transform="rotate(-46 264 167)"/><rect x="210" y="156" width="40" height="10" rx="5" fill="#E6D0FD" stroke="#02323C" stroke-width="3" transform="rotate(-34 230 161)"/><g transform="translate(150 140) rotate(-10)"><path d="M-18 4 Q-20 -16 0 -18 Q18 -18 20 -2 Q14 -6 6 -4 Q-2 -2 -4 8 Z" fill="#FF8A5B" stroke="#02323C" stroke-width="4" stroke-linejoin="round"/><path d="M-10 -12 q4 6 0 12 M0 -15 q4 6 0 12 M10 -12 q3 5 0 9" stroke="#FFD1B9" stroke-width="3" fill="none" stroke-linecap="round"/><path d="M-18 4 l-8 6 l8 2 z" fill="#FF540A" stroke="#02323C" stroke-width="3" stroke-linejoin="round"/></g><g transform="translate(210 128) rotate(20)"><path d="M-18 4 Q-20 -16 0 -18 Q18 -18 20 -2 Q14 -6 6 -4 Q-2 -2 -4 8 Z" fill="#FF8A5B" stroke="#02323C" stroke-width="4" stroke-linejoin="round"/><path d="M-10 -12 q4 6 0 12 M0 -15 q4 6 0 12 M10 -12 q3 5 0 9" stroke="#FFD1B9" stroke-width="3" fill="none" stroke-linecap="round"/><path d="M-18 4 l-8 6 l8 2 z" fill="#FF540A" stroke="#02323C" stroke-width="3" stroke-linejoin="round"/></g><g transform="translate(250 164) rotate(-30)"><path d="M-18 4 Q-20 -16 0 -18 Q18 -18 20 -2 Q14 -6 6 -4 Q-2 -2 -4 8 Z" fill="#FF8A5B" stroke="#02323C" stroke-width="4" stroke-linejoin="round"/><path d="M-10 -12 q4 6 0 12 M0 -15 q4 6 0 12 M10 -12 q3 5 0 9" stroke="#FFD1B9" stroke-width="3" fill="none" stroke-linecap="round"/><path d="M-18 4 l-8 6 l8 2 z" fill="#FF540A" stroke="#02323C" stroke-width="3" stroke-linejoin="round"/></g><g transform="translate(180 178) rotate(40)"><path d="M-18 4 Q-20 -16 0 -18 Q18 -18 20 -2 Q14 -6 6 -4 Q-2 -2 -4 8 Z" fill="#FF8A5B" stroke="#02323C" stroke-width="4" stroke-linejoin="round"/><path d="M-10 -12 q4 6 0 12 M0 -15 q4 6 0 12 M10 -12 q3 5 0 9" stroke="#FFD1B9" stroke-width="3" fill="none" stroke-linecap="round"/><path d="M-18 4 l-8 6 l8 2 z" fill="#FF540A" stroke="#02323C" stroke-width="3" stroke-linejoin="round"/></g><g transform="translate(270 132) rotate(10)"><path d="M-18 4 Q-20 -16 0 -18 Q18 -18 20 -2 Q14 -6 6 -4 Q-2 -2 -4 8 Z" fill="#FF8A5B" stroke="#02323C" stroke-width="4" stroke-linejoin="round"/><path d="M-10 -12 q4 6 0 12 M0 -15 q4 6 0 12 M10 -12 q3 5 0 9" stroke="#FFD1B9" stroke-width="3" fill="none" stroke-linecap="round"/><path d="M-18 4 l-8 6 l8 2 z" fill="#FF540A" stroke="#02323C" stroke-width="3" stroke-linejoin="round"/></g><path d="M300 110 q-8 -14 2 -26 M260 102 q-8 -14 2 -26" stroke="#73888C" stroke-width="5" fill="none" stroke-linecap="round"/></svg>